<svg width="100" height="100" viewBox="0 0 100 100" fill="none" xmlns="http://www.w3.org/2000/svg">
<circle cx="50" cy="50" r="50" fill="#00CEC9"/>
<circle cx="50" cy="50" r="50" fill="#00CEC9"/>
<path d="M38.75 29.9166L32.875 37.75V65.1666C32.875 66.2054 33.2876 67.2016 34.0222 67.9361C34.7567 68.6706 35.7529 69.0833 36.7917 69.0833H64.2083C65.2471 69.0833 66.2433 68.6706 66.9778 67.9361C67.7124 67.2016 68.125 66.2054 68.125 65.1666V37.75L62.25 29.9166H38.75Z" stroke="white" stroke-width="4" stroke-linecap="round" stroke-linejoin="round"/>
<path d="M32.875 37.75H68.125" stroke="white" stroke-width="4" stroke-linecap="round" stroke-linejoin="round"/>
<path d="M58.3332 45.5834C58.3332 47.6609 57.5079 49.6533 56.0388 51.1224C54.5698 52.5914 52.5774 53.4167 50.4998 53.4167C48.4223 53.4167 46.4299 52.5914 44.9608 51.1224C43.4918 49.6533 42.6665 47.6609 42.6665 45.5834" stroke="white" stroke-width="4" stroke-linecap="round" stroke-linejoin="round"/>
</svg>
