<svg width="100" height="100" viewBox="0 0 100 100" fill="none" xmlns="http://www.w3.org/2000/svg">
<circle cx="50" cy="50" r="50" fill="#A29BFE"/>
<path d="M60.4168 68.75V64.5833C60.4168 62.3732 59.5389 60.2536 57.9761 58.6908C56.4132 57.128 54.2936 56.25 52.0835 56.25H35.4168C33.2067 56.25 31.0871 57.128 29.5243 58.6908C27.9615 60.2536 27.0835 62.3732 27.0835 64.5833V68.75" stroke="white" stroke-width="4" stroke-linecap="round" stroke-linejoin="round"/>
<path d="M43.7498 47.9167C48.3522 47.9167 52.0832 44.1857 52.0832 39.5833C52.0832 34.981 48.3522 31.25 43.7498 31.25C39.1475 31.25 35.4165 34.981 35.4165 39.5833C35.4165 44.1857 39.1475 47.9167 43.7498 47.9167Z" stroke="white" stroke-width="4" stroke-linecap="round" stroke-linejoin="round"/>
<path d="M72.9165 68.75V64.5834C72.9151 62.737 72.3006 60.9433 71.1693 59.484C70.0381 58.0247 68.4543 56.9825 66.6665 56.5209" stroke="white" stroke-width="4" stroke-linecap="round" stroke-linejoin="round"/>
<path d="M58.3335 31.5209C60.126 31.9798 61.7148 33.0223 62.8494 34.484C63.984 35.9457 64.5998 37.7434 64.5998 39.5938C64.5998 41.4441 63.984 43.2419 62.8494 44.7036C61.7148 46.1652 60.126 47.2077 58.3335 47.6667" stroke="white" stroke-width="4" stroke-linecap="round" stroke-linejoin="round"/>
</svg>
