<svg width="100" height="100" viewBox="0 0 100 100" fill="none" xmlns="http://www.w3.org/2000/svg">
<circle cx="50" cy="50" r="50" fill="#45AAF2"/>
<g clip-path="url(#clip0_583_40)">
<path fill-rule="evenodd" clip-rule="evenodd" d="M30.4686 31.2199C30.4686 30.6222 30.2312 30.049 29.8086 29.6264C29.3859 29.2037 28.8127 28.9663 28.215 28.9663C27.6173 28.9663 27.0441 29.2037 26.6215 29.6264C26.1989 30.049 25.9614 30.6222 25.9614 31.2199V68.78C25.9614 70.024 26.971 71.0336 28.215 71.0336H71.7847C72.3824 71.0336 72.9557 70.7962 73.3783 70.3736C73.8009 69.9509 74.0383 69.3777 74.0383 68.78C74.0383 68.1823 73.8009 67.6091 73.3783 67.1865C72.9557 66.7638 72.3824 66.5264 71.7847 66.5264H30.4686V31.2199ZM73.3773 38.8221C73.7754 38.3949 73.9921 37.8298 73.9818 37.246C73.9715 36.6622 73.735 36.1051 73.3221 35.6922C72.9092 35.2793 72.3521 35.0428 71.7683 35.0325C71.1844 35.0222 70.6194 35.2389 70.1922 35.637L56.0095 49.8197L48.5876 42.3978C48.1651 41.9758 47.5923 41.7387 46.9951 41.7387C46.3979 41.7387 45.8251 41.9758 45.4025 42.3978L35.6369 52.1634C35.2388 52.5906 35.0221 53.1557 35.0324 53.7395C35.0427 54.3233 35.2792 54.8804 35.6921 55.2933C36.105 55.7062 36.6621 55.9427 37.2459 55.953C37.8298 55.9633 38.3948 55.7466 38.822 55.3485L46.9951 47.1754L54.417 54.5973C54.8395 55.0193 55.4123 55.2564 56.0095 55.2564C56.6067 55.2564 57.1795 55.0193 57.602 54.5973L73.3773 38.8221Z" fill="white"/>
</g>
<defs>
<clipPath id="clip0_583_40">
<rect width="48.0769" height="48.0769" fill="white" transform="translate(25.9614 25.9615)"/>
</clipPath>
</defs>
</svg>
