<svg width="100" height="100" viewBox="0 0 100 100" fill="none" xmlns="http://www.w3.org/2000/svg">
<circle cx="50" cy="50" r="50" fill="#FED330"/>
<circle cx="50" cy="50" r="50" fill="#FED330"/>
<g clip-path="url(#clip0_1202_69)">
<path d="M58.0129 68.0289V64.0225C58.0129 61.8973 57.1687 59.8592 55.666 58.3565C54.1633 56.8539 52.1252 56.0096 50.0001 56.0096H35.9777C33.8525 56.0096 31.8144 56.8539 30.3117 58.3565C28.809 59.8592 27.9648 61.8973 27.9648 64.0225V68.0289" stroke="white" stroke-width="4" stroke-linecap="round" stroke-linejoin="round"/>
<path d="M42.9889 47.9968C47.4143 47.9968 51.0017 44.4094 51.0017 39.984C51.0017 35.5587 47.4143 31.9712 42.9889 31.9712C38.5635 31.9712 34.9761 35.5587 34.9761 39.984C34.9761 44.4094 38.5635 47.9968 42.9889 47.9968Z" stroke="white" stroke-width="4" stroke-linecap="round" stroke-linejoin="round"/>
<path d="M60.0161 47.9968L64.0225 52.0032L72.0353 43.9904" stroke="white" stroke-width="4" stroke-linecap="round" stroke-linejoin="round"/>
</g>
<defs>
<clipPath id="clip0_1202_69">
<rect width="48.0769" height="48.0769" fill="white" transform="translate(25.9614 25.9615)"/>
</clipPath>
</defs>
</svg>
