<svg width="100" height="100" viewBox="0 0 100 100" fill="none" xmlns="http://www.w3.org/2000/svg">
<circle cx="50" cy="50" r="50" fill="#FF7676"/>
<path d="M72.2355 35.5829V27.8846C72.2355 26.8209 71.3761 25.9615 70.3124 25.9615H29.6874C28.6237 25.9615 27.7643 26.8209 27.7643 27.8846V35.5829C26.7607 35.643 25.9615 36.4784 25.9615 37.5V45.4147C25.9576 46.8693 26.2521 48.3092 26.8268 49.6454C27.0853 50.2584 27.4038 50.8353 27.7643 51.3822V72.1154C27.7643 73.1731 28.6237 74.0385 29.6874 74.0385H70.3124C71.3761 74.0385 72.2355 73.1791 72.2355 72.1154V51.3822C72.6017 50.834 72.9156 50.2525 73.173 49.6454C73.7439 48.3053 74.0383 46.881 74.0383 45.4147V37.5C74.0383 36.4784 73.2391 35.643 72.2355 35.5829ZM32.0913 30.2885H67.9085V35.5769H32.0913V30.2885ZM53.8461 69.7176H46.1538V63.4615H53.8461V69.7176ZM67.9085 69.7176H57.6922V61.5385C57.6922 60.4748 56.8328 59.6154 55.7691 59.6154H44.2307C43.167 59.6154 42.3076 60.4748 42.3076 61.5385V69.7176H32.0913V55.1623C32.2655 55.2464 32.4458 55.3305 32.6321 55.4027C33.9723 55.9676 35.3966 56.25 36.8629 56.25C38.3292 56.25 39.7475 55.9676 41.0937 55.4027C41.923 55.0541 42.7042 54.6094 43.4194 54.0745C43.4314 54.0685 43.4434 54.0685 43.4554 54.0745C44.1728 54.6117 44.954 55.0578 45.7812 55.4027C47.1213 55.9676 48.5456 56.25 50.0119 56.25C51.4783 56.25 52.8965 55.9676 54.2427 55.4027C55.072 55.0541 55.8533 54.6094 56.5684 54.0745C56.5804 54.0685 56.5925 54.0685 56.6045 54.0745C57.3218 54.6117 58.103 55.0578 58.9302 55.4027C60.2703 55.9676 61.6946 56.25 63.161 56.25C64.6273 56.25 66.0456 55.9676 67.3917 55.4027C67.572 55.3245 67.7523 55.2464 67.9326 55.1623V69.7176H67.9085ZM69.7114 45.4147C69.7114 49.0084 66.7667 51.9231 63.1429 51.9231C60.691 51.9231 58.5516 50.595 57.4218 48.6238C57.2475 48.3233 56.935 48.137 56.5864 48.137H56.5504C56.2078 48.137 55.8893 48.3233 55.715 48.6238C55.1385 49.6293 54.306 50.4642 53.3022 51.0437C52.2983 51.6232 51.159 51.9266 49.9999 51.9231C47.554 51.9231 45.4206 50.601 44.2908 48.6358C44.1105 48.3293 43.786 48.137 43.4314 48.137C43.0768 48.137 42.7463 48.3293 42.572 48.6358C41.9921 49.6375 41.1585 50.4687 40.1552 51.0458C39.1519 51.6229 38.0143 51.9255 36.8569 51.9231C33.2331 51.9231 30.2884 49.0084 30.2884 45.4147V39.9339C30.2884 39.9159 30.3004 39.9039 30.3184 39.9039H69.6814C69.6994 39.9039 69.7114 39.9159 69.7114 39.9339V45.4147Z" fill="white"/>
</svg>
