<svg width="100" height="100" viewBox="0 0 100 100" fill="none" xmlns="http://www.w3.org/2000/svg">
<circle cx="50" cy="50" r="50" fill="#59E293"/>
<path d="M50.1151 32.8149C50.0626 32.7008 49.9786 32.6042 49.8729 32.5365C49.7672 32.4687 49.6443 32.4327 49.5188 32.4327C49.3933 32.4327 49.2704 32.4687 49.1647 32.5365C49.059 32.6042 48.975 32.7008 48.9226 32.8149L46.2376 38.6386C46.1904 38.74 46.1181 38.8277 46.0275 38.8934C45.937 38.959 45.8311 39.0004 45.7201 39.0136L39.3488 39.7711C39.2246 39.7862 39.1072 39.8364 39.0106 39.916C38.914 39.9955 38.8422 40.101 38.8035 40.22C38.7649 40.3391 38.7611 40.4667 38.7926 40.5878C38.8241 40.7089 38.8896 40.8185 38.9813 40.9036L43.6913 45.2574C43.7741 45.3336 43.8358 45.4299 43.8706 45.537C43.9054 45.644 43.9121 45.7582 43.8901 45.8686L42.6376 52.1574C42.5288 52.7086 43.1138 53.1324 43.6013 52.8586L49.2001 49.7274C49.2976 49.6732 49.4073 49.6447 49.5188 49.6447C49.6304 49.6447 49.7401 49.6732 49.8376 49.7274L55.4363 52.8586C55.9238 53.1324 56.5088 52.7086 56.4001 52.1574L55.1513 45.8686C55.1292 45.7582 55.1359 45.644 55.1707 45.537C55.2055 45.4299 55.2673 45.3336 55.3501 45.2574L60.0563 40.9036C60.148 40.8185 60.2135 40.7089 60.245 40.5878C60.2765 40.4667 60.2727 40.3391 60.2341 40.22C60.1955 40.101 60.1236 39.9955 60.027 39.916C59.9304 39.8364 59.813 39.7862 59.6888 39.7711L53.3213 39.0136C53.2096 39.001 53.103 38.9599 53.0117 38.8942C52.9204 38.8285 52.8475 38.7405 52.8001 38.6386L50.1151 32.8149V32.8149Z" fill="white"/>
<path d="M72 43.6824C72.0035 46.8486 71.337 49.9796 70.0444 52.8699C68.7518 55.7602 66.8623 58.3443 64.5 60.4524V79.3074C64.4999 79.6357 64.4136 79.9583 64.2497 80.2428C64.0857 80.5273 63.85 80.7638 63.566 80.9286C63.282 81.0934 62.9597 81.1807 62.6313 81.1818C62.303 81.1829 61.9801 81.0978 61.695 80.9349L49.5 73.9674L37.305 80.9349C37.0199 81.0978 36.697 81.1829 36.3687 81.1818C36.0403 81.1807 35.718 81.0934 35.434 80.9286C35.15 80.7638 34.9143 80.5273 34.7504 80.2428C34.5864 79.9583 34.5001 79.6357 34.5 79.3074V60.4524C31.7026 57.9503 29.5755 54.7881 28.3124 51.2539C27.0493 47.7196 26.6904 43.9256 27.2684 40.2172C27.8463 36.5088 29.3427 33.0039 31.6214 30.0216C33.9 27.0393 36.8885 24.6744 40.3147 23.1422C43.7408 21.61 47.4959 20.9592 51.2378 21.2491C54.9798 21.539 58.5898 22.7603 61.7391 24.8019C64.8884 26.8434 67.477 29.6404 69.2692 32.938C71.0613 36.2357 72.0001 39.9292 72 43.6824V43.6824ZM49.5 66.1824C45.5501 66.1881 41.6689 65.1493 38.25 63.1711V76.0786L48.57 70.1799C48.8533 70.0181 49.1738 69.933 49.5 69.933C49.8262 69.933 50.1468 70.0181 50.43 70.1799L60.75 76.0824V63.1749C57.3308 65.1519 53.4496 66.1895 49.5 66.1824V66.1824ZM49.5 62.4324C54.4728 62.4324 59.242 60.457 62.7583 56.9406C66.2746 53.4243 68.25 48.6552 68.25 43.6824C68.25 38.7096 66.2746 33.9405 62.7583 30.4241C59.242 26.9078 54.4728 24.9324 49.5 24.9324C44.5272 24.9324 39.7581 26.9078 36.2418 30.4241C32.7254 33.9405 30.75 38.7096 30.75 43.6824C30.75 48.6552 32.7254 53.4243 36.2418 56.9406C39.7581 60.457 44.5272 62.4324 49.5 62.4324V62.4324Z" fill="white"/>
</svg>
